<svg xmlns="http://www.w3.org/2000/svg" viewBox="0 0 1280 420" role="img" aria-labelledby="t d">
  <title id="t">mainboard</title>
  <desc id="d">Every chip on your machine, mapped.</desc>
  <defs>
    <linearGradient id="board" x1="0" x2="1" y1="0" y2="1">
      <stop offset="0" stop-color="#07401f"/>
      <stop offset="0.55" stop-color="#0b5a31"/>
      <stop offset="1" stop-color="#0f7a3d"/>
    </linearGradient>
  </defs>
  <rect width="1280" height="420" fill="url(#board)"/>
  <g stroke="#d4a017" stroke-width="3.5" fill="none" opacity="0.5" stroke-linecap="round">
    <path d="M60 110 H300 V64"/>
    <path d="M60 210 H380 V270 H540"/>
    <path d="M60 330 H250 V258"/>
    <path d="M250 360 H470"/>
    <path d="M1135 96 H1210 M1135 210 H1210 M1135 324 H1210"/>
    <path d="M700 130 V300 H840"/>
  </g>
  <g fill="#d4a017" opacity="0.5">
    <circle cx="300" cy="64" r="5"/><circle cx="540" cy="270" r="5"/>
    <circle cx="250" cy="258" r="5"/><circle cx="470" cy="360" r="5"/>
    <circle cx="700" cy="130" r="5"/><circle cx="840" cy="300" r="5"/>
  </g>
  <g transform="translate(905 84) scale(2.0)" fill="none" stroke-linecap="round" stroke-linejoin="round">
    <g stroke="#fbbf24" stroke-width="5">
      <path d="M45 33 V19 M60 33 V19 M75 33 V19"/>
      <path d="M45 87 V101 M60 87 V101 M75 87 V101"/>
      <path d="M33 45 H19 M33 60 H19 M33 75 H19"/>
      <path d="M87 45 H101 M87 60 H101 M87 75 H101"/>
    </g>
    <rect x="33" y="33" width="54" height="54" rx="11" stroke="#4ade80" stroke-width="5"/>
    <rect x="49" y="49" width="22" height="22" rx="5" fill="#fbbf24"/>
  </g>
  <text x="96" y="232" font-family="Inter, ui-sans-serif, system-ui, sans-serif" font-size="118" font-weight="800" letter-spacing="-3" fill="#eafaf0">mainboard</text>
  <text x="100" y="286" font-family="Inter, ui-sans-serif, system-ui, sans-serif" font-size="31" font-weight="500" fill="#86efac">every chip on your machine, mapped</text>
</svg>
